<svg width="1236" height="382" viewBox="0 0 1236 382" fill="none" xmlns="http://www.w3.org/2000/svg">
<path d="M9.55036 221.393L3.81092e-05 228.621L16.1907 232.142L19.9315 221.463L9.55036 221.393Z" fill="#373737"/>
<path d="M82.7668 195.159L9.50848 221.441L16.1382 232.06L85.2916 248.639L89.0795 247.955L82.7668 195.159Z" fill="white"/>
<path d="M83.0802 195.545L325.911 211.284L331.499 245L85.3075 248.797L70.2945 228.419L74.2678 223.888L63.6106 217.749L70.3654 210.046L65.6583 209.926L83.0802 195.545Z" fill="white"/>
<path d="M88.5084 208.069L87.7634 216.227L327.5 221.5L327 218.001L88.5084 208.069Z" fill="#373737"/>
<path d="M87.1853 226.934L100.088 241.452L329.5 234L329.001 230L87.1853 226.934Z" fill="#373737"/>
<path d="M265.523 317L219.5 247.5C246.447 249.24 263.523 258.5 280.523 281.5L364.523 261L323.523 163C301.303 160.352 288.081 158.194 263.523 153.5C265.523 169.5 229.5 206.5 203 199.5L256.023 129H339.523L368.023 153.5L331.523 113.5C331.523 113.5 276.404 126.5 263.523 126.5C251.523 126.5 246.023 127 246.023 115.5L336.523 91L383.523 111.5C378.857 84.5 369.223 27.8 368.023 17C366.823 6.2 376.19 1.16667 381.023 0L410.523 79.5L420.523 137C424.857 118.333 434.423 77.2999 438.023 62.4999C441.623 47.6999 449.523 45.6665 453.023 46.4999V241C453.023 241 663.266 234.422 798.001 231C955.501 227 1275.5 223 1275.5 223L1288 340.5L1266 381.5L824.001 340.5L447.523 309L265.523 317Z" fill="white"/>
</svg>
