<svg width="596" height="502" viewBox="0 0 596 502" fill="none" xmlns="http://www.w3.org/2000/svg">
<path d="M64.0336 357.74L-66.2307 276.201L-176 186.509L-199 379.692L70.9226 502L397.21 286.237L407.856 318.852L457.958 357.74L474.241 344.568L444.18 314.462L431.028 286.237L494.281 318.852L559.414 301.917L557.5 284L501 295.5L457.958 276.201V254.876L494.281 265.538L559.414 243.586L596 205.953L587 189.5L559.414 212.852L494.281 236.686L449.816 227.278L494.281 205.953L520.585 175.846L528.726 111.87L512.443 80.5089L494.281 88.0355L497.413 125.669L474.241 175.846L431.028 195.917L397.21 199.68L374.038 182.746V141.976L417.25 129.432L431.028 93.0533L417.25 78L397.21 99.3254L346.482 111.87L317.047 141.976L295.127 236.686L64.0336 357.74Z" fill="#3C3C3C"/>
<path d="M429.777 148.656L452.166 165H466.834L476.098 150.991L489.55 85.0191L527.052 63.8208C527.052 63.8208 535.987 43.5533 534 30.3538C531.977 16.9218 517.015 0 517.015 0H495.399L478.414 17.9009L452.166 52.1462L443.673 17.9009L425.145 0L404.3 3.89151C404.3 3.89151 390.126 18.7378 384.5 30.3538C362.936 74.8741 429.777 148.656 429.777 148.656Z" fill="#EE2D2D"/>
</svg>
