<svg width="149" height="58" viewBox="0 0 149 58" fill="none" xmlns="http://www.w3.org/2000/svg">
<path d="M143.851 22.7004V6.99906L137.919 18.602L134.632 18.602L128.873 6.99906V22.7004H124.897V0.512695L129.285 0.512695L136.379 14.5769L143.439 0.512695L147.794 0.512695V22.7004H143.851Z" fill="#555555"/>
<path d="M110.194 0C103.339 0 99.1249 4.67707 99.1249 11.6066C99.1249 18.5691 103.339 23.2132 110.194 23.2132C117.016 23.2132 121.231 18.5691 121.231 11.6066C121.231 4.67707 117.013 0 110.194 0ZM110.194 19.7631C105.91 19.7631 103.167 16.6243 103.167 11.6066C103.167 6.55595 105.91 3.45011 110.194 3.45011C114.549 3.45011 117.185 6.55595 117.185 11.6066C117.185 16.6243 114.545 19.7631 110.194 19.7631Z" fill="#555555"/>
<path d="M85.345 0.512695L77.4272 0.512695V22.7004H85.448C92.2699 22.7004 96.2085 18.7741 96.2085 11.7091C96.2085 4.64404 92.1632 0.512695 85.345 0.512695ZM84.6573 19.2173H81.4027V4.02873L84.6573 4.02873C89.5595 4.02873 92.2662 6.41671 92.2662 11.6065C92.2662 16.8293 89.7985 19.2173 84.6573 19.2173Z" fill="#555555"/>
<path d="M73.7608 19.3198V22.7004L58.3702 22.7004L58.3702 0.512695L73.4151 0.512695V3.88956L62.3457 3.88956V9.76427L71.5322 9.76427V13.0056L62.3457 13.0056V19.3198L73.7608 19.3198Z" fill="#555555"/>
<path d="M54.7037 19.3198V22.7004L39.3131 22.7004L39.3131 0.512695L54.358 0.512695V3.88956L43.2886 3.88956V9.76427L52.4751 9.76427V13.0056L43.2886 13.0056V19.3198L54.7037 19.3198Z" fill="#555555"/>
<path d="M30.7775 14.2326C33.1422 13.1411 34.8559 10.9546 34.8559 7.68029C34.8559 2.56006 31.0533 0.512695 26.0813 0.512695L18.3032 0.512695L18.3032 22.7004H22.2787V15.0859L26.0849 15.0859C26.4968 15.0859 26.563 15.053 26.9087 15.0164L31.3659 22.6967H36.1651L30.7775 14.2326ZM25.0883 11.8116L22.2787 11.8116V3.82363L25.0883 3.82363C28.5158 3.82363 30.8805 4.50486 30.8805 7.68029C30.8805 10.8191 28.7916 11.8116 25.0883 11.8116Z" fill="#555555"/>
<path d="M3.97544 3.88956L3.97544 9.89979L12.1323 9.89979V13.1411L3.97544 13.1411L3.97544 22.7004H0L0 0.512695L14.8757 0.512695V3.88956L3.97544 3.88956Z" fill="#555555"/>
<path d="M145.576 44.0313C144.436 46.1116 143.116 48.5142 142.123 50.3565V52.6712C142.123 54.4292 142.152 56.1579 142.211 57.6193H139.659C139.688 56.6817 139.718 54.7185 139.718 52.7884V50.4444C138.758 48.5984 137.346 46.0237 136.176 43.7675C134.886 41.3063 133.595 38.8781 132.995 37.7939H135.845L140.531 47.225C140.74 47.6352 140.891 48.1919 140.979 48.3677H141.009C141.097 48.1626 141.277 47.6352 141.49 47.225L146.352 37.7939H148.993C148.25 39.1088 146.808 41.7458 145.576 44.0313Z" fill="#9F9F9F"/>
<path d="M131.649 40.808C130.237 39.9876 128.527 39.4895 126.574 39.4895C121.922 39.4895 118.59 42.5953 118.59 47.9536C118.59 52.7552 121.742 55.9783 126.096 55.9783C128.137 55.9783 130.208 55.363 131.649 54.4253L131.888 56.6229C130.296 57.4726 128.255 58 125.795 58C120.33 58 116.067 54.2495 116.067 48.0708C116.067 41.394 120.72 37.4092 126.637 37.4092C128.917 37.4092 130.689 37.9073 132.01 38.464L131.649 40.808Z" fill="#9F9F9F"/>
<path d="M112.103 51.0304C112.103 54.1655 112.133 56.418 112.162 57.7365H110.419L98.3196 42.5662C98.11 42.3025 97.8084 41.6286 97.7202 41.3649H97.6282C97.6871 41.7165 97.8084 42.3904 97.8084 42.742V57.6193H95.4658C95.4952 56.1543 95.5247 54.3963 95.5247 51.8801V43.0937C95.5247 40.691 95.4952 39.1674 95.4364 37.7061H97.3892L109.157 52.6419C109.396 52.9642 109.757 53.5795 109.908 53.8725H109.966C109.878 53.5209 109.816 52.7005 109.816 52.261V37.794H112.166C112.136 39.2297 112.107 41.017 112.107 43.4453V51.0304H112.103Z" fill="#9F9F9F"/>
<path d="M83.2821 39.7827V46.6353H86.4926C87.8423 46.6353 89.1662 46.6353 90.7255 46.5767L90.6372 48.5984C89.2875 48.5984 88.0555 48.5691 86.5551 48.5691H83.2821V55.6562H86.7647C89.225 55.6562 90.5489 55.5683 91.7772 55.5097L91.689 57.6193H80.7593C80.8181 56.2129 80.8806 53.986 80.8806 50.21V44.9103C80.8806 40.8961 80.8512 38.8781 80.7924 37.7939H91.1815L91.2734 39.8743C90.104 39.845 88.8425 39.7864 86.3197 39.7864H83.2821V39.7827Z" fill="#9F9F9F"/>
<path d="M69.083 49.2428V47.2211H75.9269V56.3885C73.9153 57.4726 71.7234 58 69.2926 58C63.71 58 59.4772 54.1323 59.4772 47.8657C59.4772 40.9838 64.5522 37.4092 69.8332 37.4092C72.4737 37.4092 74.5147 37.9366 75.9269 38.757L75.3275 41.101C73.6174 39.8118 71.7565 39.4895 69.6824 39.4895C65.5709 39.4895 61.9669 42.4781 61.9669 47.7192C61.9669 52.9603 65.2988 55.949 69.5316 55.949C71.0615 55.949 72.4148 55.5974 73.5254 55.07V49.2428H69.083Z" fill="#9F9F9F"/>
<path d="M18.8695 50.1622C18.8695 52.6454 18.8695 55.0627 18.8695 57.5275C18.2995 57.5275 17.7773 57.5275 17.2036 57.5275C17.2036 50.9276 17.2036 44.357 17.2036 37.7498C17.4279 37.7352 17.6192 37.7095 17.8067 37.7095C19.9875 37.7059 22.1683 37.6766 24.3491 37.7242C25.1802 37.7425 26.0298 37.856 26.8315 38.0648C29.2807 38.6984 30.7664 40.2257 31.2666 42.5221C31.6969 44.4999 31.3034 46.3385 29.9133 47.9427C29.3653 48.5763 28.6923 49.0671 27.9384 49.47C27.7729 49.5579 27.3831 49.752 27.1477 49.8728C28.4643 52.4439 29.9942 54.8905 31.3401 57.5202C30.6892 57.5202 30.1229 57.5202 29.4756 57.5202C28.2363 55.0993 26.6476 52.6344 25.3825 50.1585C23.1134 50.1622 21.2011 50.1622 18.8695 50.1622ZM18.91 48.7118C19.0424 48.7301 19.1454 48.7521 19.2483 48.7521C21.1239 48.7521 23.0031 48.7997 24.875 48.7228C25.6068 48.6935 26.3718 48.4884 27.0374 48.199C30.0309 46.8988 30.3068 43.2033 28.8835 41.1487C27.8685 39.6836 26.3092 39.1379 24.522 39.0903C22.8192 39.0427 21.1165 39.0793 19.4101 39.083C19.2447 39.083 19.0828 39.1123 18.91 39.1306C18.91 42.339 18.91 45.5107 18.91 48.7118Z" fill="#555555"/>
<path d="M1.52986 50.1513C1.52986 51.4552 1.52986 52.6748 1.52986 53.8945C1.52986 55.0958 1.52986 56.2971 1.52986 57.5497C1.00765 57.5497 0.529569 57.5497 0 57.5497C0 50.9681 0 44.3865 0 37.7353C0.187556 37.7243 0.375111 37.7024 0.562667 37.7024C2.62945 37.6987 4.69624 37.6914 6.76303 37.706C7.77068 37.7134 8.75995 37.8672 9.69772 38.2701C11.8675 39.204 12.9928 40.9108 13.2208 43.2548C13.3238 44.3389 13.2208 45.4157 12.8126 46.4412C11.9925 48.4995 10.4296 49.6093 8.3407 50.0122C7.86262 50.1037 7.36615 50.133 6.87704 50.1404C5.34349 50.155 3.80627 50.1477 2.27273 50.1477C2.05576 50.1513 1.84246 50.1513 1.52986 50.1513ZM1.56664 48.7339C1.69903 48.7559 1.79465 48.7852 1.89027 48.7852C3.75847 48.7779 5.62667 48.7816 7.49119 48.7523C7.81849 48.7486 8.14947 48.6534 8.46942 48.5545C10.9297 47.7963 12.0734 45.5842 11.577 42.8006C11.154 40.4529 9.40352 39.171 7.01311 39.0831C5.34349 39.0209 3.6702 39.0685 2.00059 39.0722C1.8682 39.0722 1.73581 39.0905 1.57032 39.1015C1.56664 42.3172 1.56664 45.4926 1.56664 48.7339Z" fill="#555555"/>
<path d="M54.6742 48.5396C52.5412 43.0055 51.0702 39.4016 50.5002 37.7021H48.1281C47.4662 39.7239 46.4475 42.3279 44.0755 48.3638C42.2146 53.1654 41.104 55.7438 40.2913 57.619H43.0237C43.5643 56.154 44.4653 53.8393 45.4546 51.2645H53.0818C54.2218 54.2239 54.9132 55.9819 55.5127 57.619H58.2745C57.6162 56.0368 56.1746 52.4072 54.6742 48.5396ZM46.0283 49.36L48.9115 41.5112C49.0328 41.1889 49.1505 40.5736 49.1799 40.2513H49.2388C49.2682 40.5443 49.419 41.2475 49.5072 41.5112L52.4493 49.36H46.0283Z" fill="#9F9F9F"/>
</svg>
