<svg width="50" height="50" viewBox="0 0 50 50" fill="none" xmlns="http://www.w3.org/2000/svg">
<path d="M0 25.6791L2.67402 37.3939L13.6672 47.4958L32.0458 49.8302L45.5433 42.5722L50 22.2411L43.1664 6.96095L33.2343 0L11.2903 2.37691L2.67402 13.9219L0 25.6791Z" fill="#426886" fill-opacity="0.7"/>
<path d="M24.6895 38.8445C24.4921 39.9958 23.5472 40.6075 23.5472 40.6075C23.5472 40.6075 23.1206 40.6673 22.7278 40.6075C21.5856 40.4337 21.0959 39.8298 20.9152 38.7452C20.8158 38.1493 21.1471 37.5664 21.6105 36.9822C22.1036 36.3605 22.8837 35.8204 23.2989 35.8649C23.9942 35.9393 24.2614 36.2955 24.5901 36.8333C24.8481 37.2553 24.8385 37.9754 24.6895 38.8445Z" fill="#E8C250"/>
<path d="M24.9121 40.8059C24.3206 40.8904 23.7865 40.7397 23.5713 40.5825L22.3546 40.5328C22.4456 40.5576 22.7419 40.7215 23.1988 40.8804C23.7699 41.0791 24.6638 41.1287 25.4584 40.9797C26.253 40.8308 26.7699 40.5712 27.2462 39.912C27.8024 39.1423 27.7677 38.356 27.6932 37.8014L27.3952 33.4561L26.8489 33.6547L26.7993 36.0881C26.7993 36.0881 26.6999 38.0746 26.3275 39.2416C26.1928 39.6637 25.6074 40.7066 24.9121 40.8059Z" fill="#E8C250"/>
<path fill-rule="evenodd" clip-rule="evenodd" d="M26.8498 33.6547C26.8498 33.6547 26.7507 30.9421 26.6015 29.21C26.4625 27.5958 26.1298 25.0881 26.1298 25.0881L25.36 20.4945L24.9875 18.1852L24.5158 16.3726L23.3736 13.3929C23.1832 12.9377 22.9679 11.8516 23.2742 10.8603C23.6962 9.49462 24.0414 8.79371 24.9875 7.93015C25.5587 7.40886 26.5519 6.93705 27.3216 6.96188C28.0914 6.98671 28.9108 7.13571 29.2833 7.60749C29.6557 8.07927 30.1027 8.87372 30.0778 9.61864C30.0735 9.74838 30.0805 9.9105 30.0886 10.1004C30.1274 11.001 30.1929 12.5266 29.2086 14.1876C28.3413 15.6513 27.3709 16.5465 26.5129 17.338C26.1727 17.6519 25.8501 17.9495 25.5587 18.2597C25.5587 18.2597 26.0804 22.6856 26.4774 25.4854C26.5488 25.9891 26.6126 26.4167 26.6724 26.8183C26.7948 27.6391 26.901 28.3516 27.0237 29.3838C27.2121 30.9696 27.3961 33.4561 27.3961 33.4561L26.8498 33.6547ZM25.3603 16.2737C24.9713 15.4874 24.7153 13.455 25.41 11.7793C26.0182 10.3122 27.5454 8.72518 28.1413 8.55136C28.4734 8.45451 29.2885 8.67053 29.4077 9.34592C29.5269 10.0213 28.9442 11.6635 28.638 12.4001C28.3317 13.1367 25.3603 16.2737 25.3603 16.2737Z" fill="#E8C250"/>
<path d="M21.9331 18.5331C22.7576 17.6025 23.9442 16.9853 24.6147 16.646L25.2106 18.7069C23.547 20.0478 22.0124 22.3521 21.0391 24.0207C20.0657 25.6893 20.3379 27.1346 21.0391 29.3593C21.6103 31.1719 22.802 33.1981 23.9939 33.2577C25.4837 33.3322 26.8078 32.7553 28.0661 31.5196C29.4568 30.1539 29.8789 29.0365 29.9783 27.7453C30.0776 26.4541 29.7422 26.0021 28.7864 25.1629C27.7683 24.269 25.1115 25.2075 24.3167 25.883C23.6713 26.4316 23.6002 27.0403 23.9941 28.1923C24.3167 29.1358 25.3099 29.8807 25.3099 29.8807C25.3894 29.9602 25.8812 30.2284 25.6576 30.5015C25.4339 30.7746 24.7556 30.7746 24.2176 30.5015C23.6796 30.2284 22.7178 29.7318 22.1814 28.5399C21.6451 27.348 21.7163 26.3701 22.5787 25.2871C23.6465 23.9462 24.6397 23.1268 26.651 22.6302C30.3597 21.7144 31.0443 23.2471 31.5653 24.4136L31.5672 24.418C31.9884 25.361 32.0121 26.9929 31.5672 28.5399C31.1093 30.1324 30.2017 31.3457 29.432 32.1403C28.6622 32.9349 28.1172 33.2016 26.8246 33.7791C25.6576 34.3006 24.9873 34.5241 23.6465 34.3999C22.5738 34.3006 20.7163 32.8935 20.1452 32.2645C19.1768 30.9981 17.4303 27.3997 18.1835 24.8898C18.6306 23.3999 19.4253 21.3638 21.9331 18.5331Z" fill="#E8C250"/>
</svg>
