<svg width="16" height="671" viewBox="0 0 16 671" fill="none" xmlns="http://www.w3.org/2000/svg">
<path d="M9 136L8.99998 671" stroke="black" stroke-width="2"/>
<path d="M3.568 112.2C7.504 112.2 6.24 105.528 9.248 105.528C10.512 105.528 10.912 106.856 10.912 108.408C10.912 109.688 10.608 110.968 9.888 112.152L11.232 112.152C11.84 111.064 12.192 109.768 12.192 108.312C12.208 106.168 11.376 104.168 9.152 104.168C5.136 104.168 6.352 110.84 3.52 110.84C2.32 110.84 1.888 109.736 1.888 108.264C1.872 107.112 2.192 105.864 2.768 104.968L1.424 104.968C0.911999 105.864 0.608 107.128 0.608 108.36C0.608 110.392 1.568 112.2 3.568 112.2ZM8.192 102.985C10.928 102.985 12.192 100.889 12.192 98.8726C12.192 97.9126 12.016 97.0966 11.664 96.3766L10.384 96.3766C10.768 97.0166 11.008 97.8646 11.008 98.6966C11.008 100.201 10.128 101.705 8.16 101.705C6.144 101.705 5.312 100.153 5.312 98.6646C5.312 97.8486 5.552 97.0326 6 96.4566L4.752 96.4566C4.32 97.1126 4.128 97.9606 4.128 98.8246C4.128 100.825 5.392 102.985 8.192 102.985ZM5.68 93.414L4.32 93.414L4.32 94.566L12 94.566L12 93.286L7.216 93.286C5.984 92.822 5.264 91.606 5.44 90.102L4.16 90.102C4.048 91.446 4.672 92.806 5.68 93.414ZM8.16 89.5159C10.784 89.5159 12.192 87.4999 12.192 85.4199C12.192 83.3239 10.784 81.3239 8.16 81.3239C5.536 81.3239 4.128 83.3239 4.128 85.4199C4.128 87.4999 5.536 89.5159 8.16 89.5159ZM8.16 82.6039C9.936 82.6039 10.976 83.8519 10.976 85.4199C10.976 86.9879 9.936 88.2359 8.16 88.2359C6.384 88.2359 5.344 86.9879 5.344 85.4199C5.344 83.8519 6.384 82.6039 8.16 82.6039ZM0.319998 79.4559L12 79.4559L12 78.1759L0.319998 78.1759L0.319998 79.4559ZM0.319998 75.7371L12 75.7371L12 74.4571L0.319998 74.4571L0.319998 75.7371Z" fill="black"/>
<path d="M9 0L9 54" stroke="black" stroke-width="2"/>
</svg>
