<svg width="94" height="60" viewBox="0 0 94 60" fill="none" xmlns="http://www.w3.org/2000/svg">
<path d="M0.64 0.4H9.24V2.2H2.84V6.56H8.84V8.28H2.84V15H0.64V0.4ZM14.422 9V15H12.222V0.5C13.4754 0.3 14.8087 0.2 16.222 0.2C18.142 0.2 19.5887 0.553333 20.562 1.26C21.5354 1.96667 22.022 2.94667 22.022 4.2C22.022 5.21333 21.762 6.08 21.242 6.8C20.722 7.52 20.0154 8.01333 19.122 8.28V8.32C19.6954 8.66667 20.2287 9.46 20.722 10.7L22.422 15H20.142L18.482 10.7C18.202 9.98 17.8887 9.52 17.542 9.32C17.2087 9.10667 16.5687 9 15.622 9H14.422ZM14.422 7.28H15.622C18.4487 7.28 19.862 6.32 19.862 4.4C19.862 3.58667 19.5554 2.98 18.942 2.58C18.342 2.16667 17.3687 1.96 16.022 1.96C15.422 1.96 14.8887 2.00667 14.422 2.1V7.28ZM27.0978 2.2V6.36H33.2978V8.08H27.0978V13.2H33.6978V15H24.8978V0.4H33.6978V2.2H27.0978ZM38.9728 2.2V6.36H45.1728V8.08H38.9728V13.2H45.5728V15H36.7728V0.4H45.5728V2.2H38.9728ZM60.0478 7.5C60.0478 10.0333 59.3945 11.9533 58.0878 13.26C56.7811 14.5533 54.9011 15.2 52.4478 15.2C51.0878 15.2 49.8211 15.1 48.6478 14.9V0.5C49.8211 0.3 51.0878 0.2 52.4478 0.2C54.8878 0.2 56.7611 0.833333 58.0678 2.1C59.3878 3.35333 60.0478 5.15333 60.0478 7.5ZM57.9478 7.5C57.9478 5.68667 57.4811 4.32 56.5478 3.4C55.6145 2.46667 54.2478 2 52.4478 2C51.8478 2 51.3145 2.04667 50.8478 2.14V13.26C51.3145 13.3533 51.8478 13.4 52.4478 13.4C54.3145 13.4 55.6945 12.92 56.5878 11.96C57.4945 10.9867 57.9478 9.5 57.9478 7.5ZM63.6922 2.24C64.9989 0.88 66.7455 0.2 68.9322 0.2C71.1189 0.2 72.8655 0.88 74.1722 2.24C75.4789 3.6 76.1322 5.42 76.1322 7.7C76.1322 9.98 75.4789 11.8 74.1722 13.16C72.8655 14.52 71.1189 15.2 68.9322 15.2C66.7455 15.2 64.9989 14.52 63.6922 13.16C62.3855 11.8 61.7322 9.98 61.7322 7.7C61.7322 5.42 62.3855 3.6 63.6922 2.24ZM65.3322 11.88C66.2389 12.8933 67.4389 13.4 68.9322 13.4C70.4255 13.4 71.6255 12.8933 72.5322 11.88C73.4389 10.8533 73.8922 9.46 73.8922 7.7C73.8922 5.94 73.4389 4.55333 72.5322 3.54C71.6255 2.51333 70.4255 2 68.9322 2C67.4389 2 66.2389 2.51333 65.3322 3.54C64.4255 4.55333 63.9722 5.94 63.9722 7.7C63.9722 9.46 64.4255 10.8533 65.3322 11.88ZM78.5111 15V0.4H80.6311L85.4511 9H85.4911L90.3111 0.4H92.5111V15H90.3111V4.2H90.2711L86.4711 11H84.4711L80.6711 4.2H80.6311V15H78.5111ZM0.2 22.4H10.86V23.76H6.34V37H4.74V23.76H0.2V22.4ZM13.6064 37V22.5C14.7664 22.3 16.0131 22.2 17.3464 22.2C19.2131 22.2 20.6197 22.5467 21.5664 23.24C22.5264 23.92 23.0064 24.8933 23.0064 26.16C23.0064 27.1733 22.7331 28.02 22.1864 28.7C21.6397 29.38 20.8664 29.8467 19.8664 30.1V30.14C20.4664 30.46 21.0597 31.3267 21.6464 32.74L23.4064 37H21.7464L20.0264 32.78C19.6264 31.82 19.2464 31.2267 18.8864 31C18.5397 30.76 17.8464 30.64 16.8064 30.64H15.2064V37H13.6064ZM15.2064 29.36H16.8064C18.3931 29.36 19.5597 29.1067 20.3064 28.6C21.0531 28.08 21.4264 27.3133 21.4264 26.3C21.4264 24.4333 20.0197 23.5 17.2064 23.5C16.4997 23.5 15.8331 23.56 15.2064 23.68V29.36ZM25.0441 37L30.3841 22.4H32.1841L37.5041 37H35.8041L34.3241 32.74H28.1641L26.7041 37H25.0441ZM28.6041 31.46H33.8841L31.2641 23.84H31.2241L28.6041 31.46ZM38.4791 22.4L42.9991 35.42H43.0391L47.5591 22.4H49.2191L43.8991 37H42.0991L36.7591 22.4H38.4791ZM53.0663 23.74V28.5H59.6063V29.78H53.0663V35.66H60.0063V37H51.4663V22.4H60.0063V23.74H53.0663ZM64.7045 22.4V35.64H71.8445V37H63.0445V22.4H64.7045ZM84.1045 30.52C83.1979 31.12 82.5645 31.6533 82.2045 32.12C81.8445 32.5867 81.6645 33.0467 81.6645 33.5C81.6645 34.82 82.5645 35.48 84.3645 35.48C85.0712 35.48 85.6845 35.4133 86.2045 35.28C86.7379 35.1333 87.3379 34.8733 88.0045 34.5L84.1045 30.52ZM85.7845 29.46L88.7645 32.54V28.76H90.8045V34.66L93.0645 37H90.4645L89.3845 35.9C87.6645 36.7667 85.9579 37.2 84.2645 37.2C81.0645 37.2 79.4645 36 79.4645 33.6C79.4645 32.88 79.7112 32.18 80.2045 31.5C80.7112 30.82 81.5912 30.06 82.8445 29.22L82.6445 29.02C81.3245 27.6867 80.6645 26.48 80.6645 25.4C80.6645 24.4267 81.0312 23.6533 81.7645 23.08C82.4979 22.4933 83.5312 22.2 84.8645 22.2C86.2112 22.2 87.2312 22.4733 87.9245 23.02C88.6179 23.5667 88.9645 24.3267 88.9645 25.3C88.9645 26.02 88.7245 26.7 88.2445 27.34C87.7779 27.98 86.9579 28.6867 85.7845 29.46ZM84.5245 28.14C85.5112 27.4867 86.1579 26.98 86.4645 26.62C86.7712 26.2467 86.9245 25.84 86.9245 25.4C86.9245 24.3867 86.2379 23.88 84.8645 23.88C84.2112 23.88 83.7045 24.02 83.3445 24.3C82.9979 24.5667 82.8245 24.9333 82.8245 25.4C82.8245 25.8 82.9179 26.1667 83.1045 26.5C83.3045 26.82 83.7779 27.3667 84.5245 28.14Z" fill="#555555"/>
<path d="M4.24 45.5C3.54667 45.5 2.9 45.56 2.3 45.68V50.5H3.64C6.54667 50.5 8 49.6467 8 47.94C8 47.1133 7.7 46.5 7.1 46.1C6.5 45.7 5.54667 45.5 4.24 45.5ZM10.16 54.8C10.16 57.7333 8.25333 59.2 4.44 59.2C3.18667 59.2 1.94 59.0933 0.7 58.88V44.52C1.87333 44.3067 3.05333 44.2 4.24 44.2C7.74667 44.2 9.5 45.38 9.5 47.74C9.5 48.5667 9.23333 49.2733 8.7 49.86C8.16667 50.4467 7.43333 50.84 6.5 51.04V51.08C7.67333 51.2533 8.57333 51.6667 9.2 52.32C9.84 52.9733 10.16 53.8 10.16 54.8ZM8.6 54.66C8.6 53.6733 8.20667 52.9467 7.42 52.48C6.64667 52.0133 5.38667 51.78 3.64 51.78H2.3V57.72C2.95333 57.84 3.66667 57.9 4.44 57.9C7.21333 57.9 8.6 56.82 8.6 54.66ZM14.5731 53.34C14.5731 56.34 15.8198 57.84 18.3131 57.84C20.8065 57.84 22.0531 56.34 22.0531 53.34V44.4H23.6131V53.26C23.6131 55.2067 23.1531 56.6867 22.2331 57.7C21.3265 58.7 20.0131 59.2 18.2931 59.2C16.5731 59.2 15.2531 58.7 14.3331 57.7C13.4131 56.6867 12.9531 55.2067 12.9531 53.26V44.4H14.5731V53.34ZM31.1502 45.5C30.2302 45.5 29.5168 45.7067 29.0102 46.12C28.5035 46.52 28.2502 47.08 28.2502 47.8C28.2502 49.0933 29.1968 50.0267 31.0902 50.6C32.7435 51.08 33.9168 51.68 34.6102 52.4C35.3168 53.12 35.6702 54.0533 35.6702 55.2C35.6702 56.4933 35.2635 57.4867 34.4502 58.18C33.6502 58.86 32.5035 59.2 31.0102 59.2C29.3568 59.2 27.8902 58.78 26.6102 57.94L27.0902 56.62C28.2502 57.4467 29.5568 57.86 31.0102 57.86C31.9968 57.86 32.7502 57.6333 33.2702 57.18C33.8035 56.7267 34.0702 56.0667 34.0702 55.2C34.0702 54.4 33.8435 53.7667 33.3902 53.3C32.9502 52.82 32.1702 52.4067 31.0502 52.06C28.1302 51.1933 26.6702 49.7733 26.6702 47.8C26.6702 46.7067 27.0635 45.8333 27.8502 45.18C28.6502 44.5267 29.7502 44.2 31.1502 44.2C32.6568 44.2 34.0568 44.5133 35.3502 45.14L34.9502 46.38C33.7902 45.7933 32.5235 45.5 31.1502 45.5ZM39.675 59V44.4H41.415V59H39.675ZM45.9227 59V44.4H47.5827L55.1827 56.4H55.2227V44.4H56.7827V59H55.1427L47.5427 47H47.5027V59H45.9227ZM62.2805 45.74V50.5H68.8205V51.78H62.2805V57.66H69.2205V59H60.6805V44.4H69.2205V45.74H62.2805ZM76.7634 45.5C75.8434 45.5 75.1301 45.7067 74.6234 46.12C74.1168 46.52 73.8634 47.08 73.8634 47.8C73.8634 49.0933 74.8101 50.0267 76.7034 50.6C78.3568 51.08 79.5301 51.68 80.2234 52.4C80.9301 53.12 81.2834 54.0533 81.2834 55.2C81.2834 56.4933 80.8768 57.4867 80.0634 58.18C79.2634 58.86 78.1168 59.2 76.6234 59.2C74.9701 59.2 73.5034 58.78 72.2234 57.94L72.7034 56.62C73.8634 57.4467 75.1701 57.86 76.6234 57.86C77.6101 57.86 78.3634 57.6333 78.8834 57.18C79.4168 56.7267 79.6834 56.0667 79.6834 55.2C79.6834 54.4 79.4568 53.7667 79.0034 53.3C78.5634 52.82 77.7834 52.4067 76.6634 52.06C73.7434 51.1933 72.2834 49.7733 72.2834 47.8C72.2834 46.7067 72.6768 45.8333 73.4634 45.18C74.2634 44.5267 75.3634 44.2 76.7634 44.2C78.2701 44.2 79.6701 44.5133 80.9634 45.14L80.5634 46.38C79.4034 45.7933 78.1368 45.5 76.7634 45.5ZM88.3377 45.5C87.4177 45.5 86.7043 45.7067 86.1977 46.12C85.691 46.52 85.4377 47.08 85.4377 47.8C85.4377 49.0933 86.3843 50.0267 88.2777 50.6C89.931 51.08 91.1043 51.68 91.7977 52.4C92.5043 53.12 92.8577 54.0533 92.8577 55.2C92.8577 56.4933 92.451 57.4867 91.6377 58.18C90.8377 58.86 89.691 59.2 88.1977 59.2C86.5443 59.2 85.0777 58.78 83.7977 57.94L84.2777 56.62C85.4377 57.4467 86.7443 57.86 88.1977 57.86C89.1843 57.86 89.9377 57.6333 90.4577 57.18C90.991 56.7267 91.2577 56.0667 91.2577 55.2C91.2577 54.4 91.031 53.7667 90.5777 53.3C90.1377 52.82 89.3577 52.4067 88.2377 52.06C85.3177 51.1933 83.8577 49.7733 83.8577 47.8C83.8577 46.7067 84.251 45.8333 85.0377 45.18C85.8377 44.5267 86.9377 44.2 88.3377 44.2C89.8443 44.2 91.2443 44.5133 92.5377 45.14L92.1377 46.38C90.9777 45.7933 89.711 45.5 88.3377 45.5Z" fill="#9F9F9F"/>
</svg>
